<?xml version="1.0" standalone="no"?><!DOCTYPE svg PUBLIC "-//W3C//DTD SVG 1.1//EN" "http://www.w3.org/Graphics/SVG/1.1/DTD/svg11.dtd"><svg class="icon" width="200px" height="200.00px" viewBox="0 0 1024 1024" version="1.1" xmlns="http://www.w3.org/2000/svg"><path d="M510.337639 60.457954c-247.512187 0-448.16002 200.648856-448.16002 448.16002 0 247.512187 200.647833 448.161043 448.16002 448.161043 247.51321 0 448.158996-200.648856 448.158996-448.161043C958.496635 261.10681 757.850849 60.457954 510.337639 60.457954zM385.027655 249.504564c11.216459-9.156544 31.502481 6.461155 44.341904 3.809769 11.302417-2.363837 14.283308-8.93551 27.866674-17.58961 10.691503-6.704702 26.989701-4.14132 33.214473 2.914376 6.309706 7.030114 17.700127 13.713326 17.700127 13.713326s3.679809-0.436952 13.232372-9.704013c9.641591-9.200546 18.314111-14.567787 34.438347-8.457626 16.124236 6.025227 18.402115 19.741623 34.704406 19.478633 16.520255-0.306992 22.341844-11.94096 36.628222-6.309706 16.431228 6.506181 9.818623 26.747177-3.025916 34.831296-15.332197 9.79304-22.255887 20.240997-30.362518 31.195489-8.236592 10.977006-21.73093 24.841781-21.73093 24.841781L444.177823 338.228281c0 0-15.685237-15.969717-24.183795-28.302603-8.457626-12.356422-19.456121-21.798469-29.53364-29.002544C380.382868 273.579889 373.855198 258.594593 385.027655 249.504564zM724.820572 644.490523c-14.19428 83.289961-88.595804 151.461597-215.442794 151.461597-130.96682 0-200.061478-82.365916-213.338876-154.969491-14.941294-81.622996 24.752754-149.734256 73.740468-192.319144 42.678008-37.001729 69.405743-76.718289 69.405743-76.718289l139.336442 0c0 0 25.584702 37.941124 73.173556 77.901231C692.177104 483.84373 742.173798 542.774911 724.820572 644.490523zM574.489728 598.967724c11.916401 0.12996 16.124236-6.046716 16.387225-13.495362 0.173962-6.52767-5.916756-18.62008-16.650215-18.928095l-47.585785 0 0-11.455913c0 0 36.103266-36.85028 45.481867-45.326325 9.330506-8.543583 11.653411-15.248286 5.867638-22.149463-5.782703-7.052626-16.123212-6.594185-23.660886-0.350994-7.621585 6.353708-44.515866 40.573067-44.515866 40.573067s-31.635511-32.641421-38.46915-39.193651c-6.176676-5.913687-19.190061-11.697413-26.201755-3.723811-7.359618 8.324596-1.663896 18.687618 2.891863 23.221888 4.600785 4.514827 44.164872 46.38033 44.164872 46.38033l-0.084934 12.595876-49.51267 0c-7.362688 0-13.846356 13.011338-13.672394 19.978007 0.306992 6.879688 5.783727 12.31242 13.672394 12.31242 7.710612 0 49.334615-0.306992 49.334615-0.306992l-0.084934 35.137265-51.353598 0c-7.274684 0-13.495362 7.318686-13.757329 14.33038-0.26299 6.879688 5.476735 16.299221 13.757329 16.299221l51.265594 0c0 0-0.088004 12.001335 0.173962 17.038048 0.791016 11.17962 8.061606 15.776312 17.877159 15.906272 9.815553 0.1361 16.739243-8.017604 16.739243-15.375176 0-6.048763-0.174985-17.569144-0.174985-17.569144s42.673915-0.045025 50.695612 0c8.106632 0.084934 14.06432-8.106632 13.801331-16.299221-0.26299-8.327666-5.344728-14.72333-17.526165-14.72333l-46.709835 0 0.26299-34.744315L574.489728 598.967724z" fill="#272636" /></svg>