<?xml version="1.0" standalone="no"?><!DOCTYPE svg PUBLIC "-//W3C//DTD SVG 1.1//EN" "http://www.w3.org/Graphics/SVG/1.1/DTD/svg11.dtd"><svg class="icon" width="200px" height="200.00px" viewBox="0 0 1024 1024" version="1.1" xmlns="http://www.w3.org/2000/svg"><path d="M64.67 512c2.03-148.27 27.78-271.04 103.07-344.26C240.96 92.45 363.73 66.7 512 64.67c148.27 2.03 271.04 27.78 344.26 103.07C931.55 240.96 957.3 363.73 959.33 512c-2.03 148.27-27.78 271.04-103.07 344.26C783.04 931.55 660.27 957.3 512 959.33c-148.27-2.03-271.04-27.78-344.26-103.07C92.45 783.04 66.7 660.27 64.67 512z"  /><path d="M339.12 720.13c-26.83 0-48.77-21.95-48.77-48.77V446.89c0-26.83 21.95-48.77 48.77-48.77 26.83 0 48.77 21.95 48.77 48.77v224.47c0.01 26.82-21.94 48.77-48.77 48.77zM512 720.13c-26.83 0-48.77-21.95-48.77-48.77V352.64c0-26.83 21.95-48.77 48.77-48.77 26.83 0 48.77 21.95 48.77 48.77v318.71c0 26.83-21.94 48.78-48.77 48.78zM684.88 720.13c-26.83 0-48.77-21.95-48.77-48.77V533.13c0-26.83 21.95-48.77 48.77-48.77 26.83 0 48.77 21.95 48.77 48.77v138.23c0 26.82-21.95 48.77-48.77 48.77z" fill="#FFFFFF" /></svg>